name baseline.mot
datacolumns 19
datarows 17
range 7.22330800000000 7.24997700000000
endheader
time	ground_force1_vx	ground_force1_vy	ground_force1_vz	ground_force1_px	ground_force1_py	ground_force1_pz	ground_force2_vx	ground_force2_vy	ground_force2_vz	ground_force2_px	ground_force2_py	ground_force2_pz	ground_torque1_x	ground_torque1_y	ground_torque1_z	ground_torque2_x	ground_torque2_y	ground_torque2_z	
7.22330800000000	-8.25803700000000	41.63818700000000	-12.38404200000000	0.19179600000000	0.00000000000000	0.13203900000000	-67.12105500000000	764.55846199999996	-63.47058400000000	-0.01648400000000	0.00000000000000	-0.10295800000000	0.00000000000000	-3.81021200000000	0.00000000000000	0.00000000000000	-9.98025000000000	0.00000000000000	
7.22497600000000	-8.90120400000000	49.16346700000000	-13.88023400000000	0.19755700000000	0.00000000000000	0.13338800000000	-68.24866700000000	761.66525100000001	-63.19885000000000	-0.01761000000000	0.00000000000000	-0.10285100000000	0.00000000000000	-4.43813400000000	0.00000000000000	0.00000000000000	-10.11608600000000	0.00000000000000	
7.22663900000000	-9.34649100000000	56.87977500000000	-15.22257000000000	0.20274500000000	0.00000000000000	0.13460200000000	-69.38368900000000	758.63117699999998	-62.90601000000000	-0.01873500000000	0.00000000000000	-0.10274300000000	0.00000000000000	-5.05230000000000	0.00000000000000	0.00000000000000	-10.25747800000000	0.00000000000000	
7.22830700000000	-9.57120700000000	64.69590400000000	-16.37786900000000	0.20746100000000	0.00000000000000	0.13570200000000	-70.52419500000001	755.45293700000002	-62.59155700000000	-0.01985900000000	0.00000000000000	-0.10263400000000	0.00000000000000	-5.63985000000000	0.00000000000000	0.00000000000000	-10.40415200000000	0.00000000000000	
7.22997800000000	-9.56304000000000	72.54073200000001	-17.32430700000000	0.21178400000000	0.00000000000000	0.13670800000000	-71.66815800000001	752.12727500000005	-62.25500500000000	-0.02098100000000	0.00000000000000	-0.10252200000000	0.00000000000000	-6.19076000000000	0.00000000000000	0.00000000000000	-10.55581400000000	0.00000000000000	
7.23163800000000	-9.31974400000000	80.36573400000000	-18.05153100000000	0.21577500000000	0.00000000000000	0.13763300000000	-72.81345000000000	748.65098499999999	-61.89589100000000	-0.02210000000000	0.00000000000000	-0.10240900000000	0.00000000000000	-6.69814600000000	0.00000000000000	0.00000000000000	-10.71214200000000	0.00000000000000	
7.23330700000000	-8.84806600000000	88.14520500000000	-18.55980700000000	0.21948100000000	0.00000000000000	0.13849000000000	-73.95784399999999	745.02093000000002	-61.51378200000000	-0.02321400000000	0.00000000000000	-0.10229400000000	0.00000000000000	-7.15825500000000	0.00000000000000	0.00000000000000	-10.87279000000000	0.00000000000000	
7.23499800000000	-8.16210400000000	95.87455600000000	-18.85845000000000	0.22294200000000	0.00000000000000	0.13928600000000	-75.09902599999999	741.23404400000004	-61.10827000000000	-0.02432300000000	0.00000000000000	-0.10217600000000	0.00000000000000	-7.57021600000000	0.00000000000000	0.00000000000000	-11.03738700000000	0.00000000000000	
7.23663400000000	-7.28135800000000	103.56717100000000	-18.96378000000000	0.22619100000000	0.00000000000000	0.14003000000000	-76.23459000000000	737.28734999999995	-60.67898100000000	-0.02542600000000	0.00000000000000	-0.10205700000000	0.00000000000000	-7.93558400000000	0.00000000000000	0.00000000000000	-11.20554200000000	0.00000000000000	
7.23830700000000	-6.22866300000000	111.25031500000000	-18.89686200000000	0.22925200000000	0.00000000000000	0.14072700000000	-77.36205099999999	733.17796999999996	-60.22557600000000	-0.02652200000000	0.00000000000000	-0.10193600000000	0.00000000000000	-8.25777800000000	0.00000000000000	0.00000000000000	-11.37683800000000	0.00000000000000	
7.23997600000000	-5.02821200000000	118.96062000000001	-18.68125100000000	0.23214700000000	0.00000000000000	0.14138400000000	-78.47884600000000	728.90313700000002	-59.74775200000000	-0.02760900000000	0.00000000000000	-0.10181200000000	0.00000000000000	-8.54145300000000	0.00000000000000	0.00000000000000	-11.55083600000000	0.00000000000000	
7.24164100000000	-3.70380500000000	126.73957500000000	-18.34092800000000	0.23489400000000	0.00000000000000	0.14200500000000	-79.58234400000001	724.46020999999996	-59.24524300000000	-0.02868700000000	0.00000000000000	-0.10168700000000	0.00000000000000	-8.79189100000000	0.00000000000000	0.00000000000000	-11.72707700000000	0.00000000000000	
7.24330800000000	-2.27742800000000	134.62938399999999	-17.89855000000000	0.23750800000000	0.00000000000000	0.14259200000000	-80.66985099999999	719.84668799999997	-58.71782900000000	-0.02975500000000	0.00000000000000	-0.10155900000000	0.00000000000000	-9.01443600000000	0.00000000000000	0.00000000000000	-11.90508200000000	0.00000000000000	
7.24497600000000	-0.76821400000000	142.66945400000000	-17.37411400000000	0.24000100000000	0.00000000000000	0.14315000000000	-81.73861500000000	715.06022199999995	-58.16533000000000	-0.03081100000000	0.00000000000000	-0.10142800000000	0.00000000000000	-9.21403900000000	0.00000000000000	0.00000000000000	-12.08435000000000	0.00000000000000	
7.24664100000000	0.80819600000000	150.89367400000000	-16.78404900000000	0.24238400000000	0.00000000000000	0.14368000000000	-82.78583800000000	710.09863499999994	-57.58761400000000	-0.03185500000000	0.00000000000000	-0.10129500000000	0.00000000000000	-9.39489500000000	0.00000000000000	0.00000000000000	-12.26436400000000	0.00000000000000	
7.24830900000000	2.43991700000000	159.32855300000000	-16.14074400000000	0.24466500000000	0.00000000000000	0.14418600000000	-83.80867900000000	704.95993599999997	-56.98459800000000	-0.03288500000000	0.00000000000000	-0.10116000000000	0.00000000000000	-9.56021900000000	0.00000000000000	0.00000000000000	-12.44458900000000	0.00000000000000	
7.24997700000000	4.11875500000000	167.99220000000000	-15.45246000000000	0.24685200000000	0.00000000000000	0.14466900000000	-84.80426600000000	699.64233400000001	-56.35624700000000	-0.03390100000000	0.00000000000000	-0.10102300000000	0.00000000000000	-9.71212900000000	0.00000000000000	0.00000000000000	-12.62447300000000	0.00000000000000	
